# xmcd
#
# Track frame offsets: 
#        183
#        22088
#        50575
#        78778
#        98860
#        109530
#        138373
#        165673
#        188680
#        204128
#        221883
#        241283
#        261445
#
# Disc length: 3682 seconds
#
# Revision: 1
# Processed by: cddbd v1.5.2PL0 Copyright (c) Steve Scherf et al.
# Submitted via: ExactAudioCopy v1.0b1
#
DISCID=af0e600d
DTITLE=Blue Eyed Blues - Blue Eyed Blues
DYEAR=1900
DGENRE=Blues
TTITLE0=Stan Webb's Chicken Shack - A Blues Song
TTITLE1=Zoot Money and Colin Hodgkinson - My Good Luck Soul
TTITLE2=Paul Lamb and The King Snakes - Texas Boogie
TTITLE3=Frank White - Dog It!
TTITLE4=Nine Below Zero - Can I Get A Witness
TTITLE5=Mick Abrahams - Black Night
TTITLE6=The Norman Beaker Band - Modern Days, Lonely Nights
TTITLE7=Mick Abrahams' Blodwyn Pig - Lies
TTITLE8=The John Dummer Blues Band - Down Home Girl
TTITLE9=Alexis Korner - Wednesday Night Prayer Meeting
TTITLE10=Gets Z Loose - Standing By The River (On The Suicide)
TTITLE11=John Pearson - Travellin' Man
TTITLE12=Duster Bennett - As Years Roll By
EXTD=
EXTT0=Stan Webb's Chicken Shack
EXTT1=
EXTT2=
EXTT3=
EXTT4=
EXTT5=
EXTT6=
EXTT7=
EXTT8=
EXTT9=
EXTT10=
EXTT11=
EXTT12=
PLAYORDER=
